<?xml version="1.0" encoding="utf-8"?>
<!-- Generator: Adobe Illustrator 22.1.0, SVG Export Plug-In . SVG Version: 6.00 Build 0)  -->
<svg version="1.1" id="Слой_1" xmlns="http://www.w3.org/2000/svg" xmlns:xlink="http://www.w3.org/1999/xlink" x="0px" y="0px"
	 viewBox="0 0 707 904" style="enable-background:new 0 0 707 904;" xml:space="preserve">
<style type="text/css">
	.st0{opacity:7.000000e-02;fill:url(#SVGID_1_);enable-background:new    ;}
	.st1{opacity:7.000000e-02;fill:url(#SVGID_2_);enable-background:new    ;}
	.st2{opacity:0.4;fill:url(#SVGID_3_);enable-background:new    ;}
	.st3{opacity:0.4;fill:url(#SVGID_4_);enable-background:new    ;}
	.st4{opacity:0.3;fill:url(#SVGID_5_);enable-background:new    ;}
	.st5{fill:#F2994A;}
	.st6{opacity:0.15;fill:#FFFFFF;enable-background:new    ;}
	.st7{opacity:0.3;fill:url(#SVGID_6_);enable-background:new    ;}
	.st8{fill:#F2C94C;}
	.st9{opacity:0.3;fill:url(#SVGID_7_);enable-background:new    ;}
	.st10{opacity:0.2;fill:url(#SVGID_8_);enable-background:new    ;}
</style>
<linearGradient id="SVGID_1_" gradientUnits="userSpaceOnUse" x1="59.6953" y1="757.2829" x2="365.7393" y2="478.6285" gradientTransform="matrix(1 0 0 -1 0 904)">
	<stop  offset="0" style="stop-color:#FFFFFF"/>
	<stop  offset="1" style="stop-color:#FFFFFF;stop-opacity:0"/>
</linearGradient>
<path class="st0" d="M69.6,431.2c-26-22.3-42-63.8-42-119.8c0-115,67.4-247.2,150.4-294.2c83.1-47.1,149.3,8.1,148.5,124
	c-0.4,55.1-16.2,114.2-41.7,165.6c-19.7,39.6-32.6,83.8-36.9,124.9c-1.7,17.6-12.2,35.8-24.3,42.8l-92.8,53.5
	c-12.2,7.1-22.6,0.7-24.5-14.8C102.1,477.1,89.3,448.3,69.6,431.2z"/>
<linearGradient id="SVGID_2_" gradientUnits="userSpaceOnUse" x1="-98.6825" y1="583.3882" x2="207.3615" y2="304.7332" gradientTransform="matrix(1 0 0 -1 0 904)">
	<stop  offset="0" style="stop-color:#FFFFFF"/>
	<stop  offset="1" style="stop-color:#FFFFFF;stop-opacity:0"/>
</linearGradient>
<path class="st1" d="M108.1,621.2l0-24.6c0-13.2,7.6-28.1,17.1-33.8l104.2-60.2c9.5-5.5,17.1,0.7,17.1,13.9l0,24.6
	c0,19.8-10.4,41.8-24,52.6l-90.6,52.3C118.4,651.1,108.1,640.8,108.1,621.2z"/>
<linearGradient id="SVGID_3_" gradientUnits="userSpaceOnUse" x1="109.7143" y1="717.5026" x2="415.7583" y2="438.8484" gradientTransform="matrix(1 0 0 -1 0 904)">
	<stop  offset="0" style="stop-color:#FFFFFF"/>
	<stop  offset="1" style="stop-color:#FFFFFF;stop-opacity:0"/>
</linearGradient>
<path class="st2" d="M119.6,471c-26-22.3-42-63.8-42-119.8c0-115,67.4-247.2,150.4-294.2c83.1-47.1,149.3,8.1,148.5,124
	c-0.4,55.1-16.2,114.2-41.7,165.6c-19.7,39.6-32.6,83.8-36.9,124.9c-1.7,17.6-12.2,35.8-24.3,42.8l-92.8,53.5
	c-12.2,7.1-22.6,0.7-24.5-14.8C152.1,516.9,139.3,488,119.6,471z"/>
<linearGradient id="SVGID_4_" gradientUnits="userSpaceOnUse" x1="-48.664" y1="543.6072" x2="257.381" y2="264.9525" gradientTransform="matrix(1 0 0 -1 0 904)">
	<stop  offset="0" style="stop-color:#FFFFFF"/>
	<stop  offset="1" style="stop-color:#FFFFFF;stop-opacity:0"/>
</linearGradient>
<path class="st3" d="M158.1,661l0-24.6c0-13.2,7.6-28.1,17.1-33.8l104.2-60.2c9.5-5.5,17.1,0.7,17.1,13.9l0,24.6
	c0,19.8-10.4,41.8-24,52.6l-90.6,52.3C168.4,690.9,158.1,680.6,158.1,661z"/>
<linearGradient id="SVGID_5_" gradientUnits="userSpaceOnUse" x1="441.8531" y1="296.5233" x2="595.5031" y2="176.2192" gradientTransform="matrix(1 0 0 -1 0 904)">
	<stop  offset="0" style="stop-color:#FFFFFF"/>
	<stop  offset="1" style="stop-color:#FFFFFF;stop-opacity:0"/>
</linearGradient>
<path class="st4" d="M377,669.6l297.6-171.8l-0.1,155.1L403.1,809.5l-26.3,38.9L377,669.6z"/>
<path class="st5" d="M706.2,558.3l0-42.1L593.9,581l0,42.1L706.2,558.3z"/>
<path class="st6" d="M453.5,663.2l65.2-37.6l0,13.6l-65.2,37.6L453.5,663.2z"/>
<path class="st6" d="M453.4,690.5l125.7-72.5l0,13.6l-125.7,72.5L453.4,690.5z"/>
<path class="st6" d="M453.4,717.7l152.3-87.9l0,13.6l-152.3,87.9L453.4,717.7z"/>
<path class="st5" d="M437.4,686.7c0,12.8-7.6,27.5-16.9,32.9c-9.3,5.4-16.9-0.6-16.9-13.4c0-12.8,7.6-27.5,16.9-32.9
	C429.8,667.9,437.4,673.9,437.4,686.7z"/>
<linearGradient id="SVGID_6_" gradientUnits="userSpaceOnUse" x1="225.9727" y1="322.6472" x2="187.5038" y2="10.6172" gradientTransform="matrix(1 0 0 -1 0 904)">
	<stop  offset="0" style="stop-color:#FFFFFF"/>
	<stop  offset="1" style="stop-color:#FFFFFF;stop-opacity:0"/>
</linearGradient>
<path class="st7" d="M353.8,576.3L56.2,748.1l-0.1,155.1l271.3-156.6l26.2,8.6L353.8,576.3z"/>
<path class="st8" d="M142.8,775.4l0-42.1L30.5,798.2l0,42.1L142.8,775.4z"/>
<path class="st6" d="M277.3,658.3l-65.2,37.6l0,13.6l65.2-37.6L277.3,658.3z"/>
<path class="st6" d="M277.3,685.5l-117.7,67.9l0,13.6l117.7-67.9L277.3,685.5z"/>
<path class="st6" d="M277.2,712.8L125,800.7l0,13.6l152.3-87.9L277.2,712.8z"/>
<path class="st8" d="M293.3,663.2c0,12.8,7.6,18.8,16.9,13.4c9.3-5.4,16.9-20.1,16.9-32.9c0-12.8-7.6-18.8-16.9-13.4
	C300.9,635.7,293.3,650.4,293.3,663.2z"/>
<path class="st6" d="M21.8,563.3l-7.5,16.6l63.2,14.7l-65.7,91.5l7.5,7.9L100,581.6L21.8,563.3z"/>
<path class="st5" d="M0.9,581.9c0,12.9,7.6,19,16.9,13.7c9.3-5.4,16.9-20.2,16.9-33.2c0-12.9-7.6-19-16.9-13.7
	C8.4,554.1,0.9,569,0.9,581.9z"/>
<path class="st5" d="M0.9,696.5c0,12.9,7.6,19,16.9,13.7c9.3-5.4,16.9-20.2,16.9-33.2c0-12.9-7.6-19-16.9-13.7
	C8.4,668.8,0.9,683.6,0.9,696.5z"/>
<path class="st8" d="M73,596.1c0,12.9,7.6,19,16.9,13.7c9.3-5.4,16.9-20.2,16.9-33.2c0-12.9-7.6-19-16.9-13.7S73,583.2,73,596.1z"/>
<linearGradient id="SVGID_7_" gradientUnits="userSpaceOnUse" x1="358.9409" y1="623.0331" x2="507.7079" y2="365.2941" gradientTransform="matrix(1 0 0 -1 0 904)">
	<stop  offset="0" style="stop-color:#FFFFFF"/>
	<stop  offset="1" style="stop-color:#FFFFFF;stop-opacity:0"/>
</linearGradient>
<path class="st9" d="M544.4,253.6l-167.6,96.7l0,310.5l167.6-96.7L544.4,253.6z"/>
<path class="st6" d="M528,437.9l-134.6,77.7l0,13.6L528,451.6L528,437.9z"/>
<path class="st6" d="M518.6,469.9l-115.7,66.8l0,13.6l115.7-66.8L518.6,469.9z"/>
<path class="st8" d="M469.7,525.4l116.6-67.3l0,34.7l-116.6,67.3L469.7,525.4z"/>
<path class="st8" d="M441.6,375.7c0,15,8.7,22.1,19.4,15.9c10.7-6.3,19.4-23.5,19.4-38.6c0-15-8.7-22.1-19.4-15.9
	C450.3,343.4,441.6,360.7,441.6,375.7z"/>
<path class="st8" d="M461,403.7c17.3-10.1,31.6-0.6,34.1,21.1c0.4,3.8-2.4,8.8-5.9,10.8l-56.4,33c-3.5,2-6.3,0.4-5.9-3.9
	C429.4,439.9,443.7,413.8,461,403.7z"/>
<linearGradient id="SVGID_8_" gradientUnits="userSpaceOnUse" x1="285.4891" y1="76.8" x2="330.2521" y2="38.13" gradientTransform="matrix(1 0 0 -1 0 904)">
	<stop  offset="0" style="stop-color:#FFFFFF"/>
	<stop  offset="1" style="stop-color:#FFFFFF;stop-opacity:0"/>
</linearGradient>
<path class="st10" d="M298.3,884.6c60.5-77.8,16.7-106,0-60.4C281.5,798,237.8,876.6,298.3,884.6z"/>
</svg>
